<?xml version="1.0" encoding="UTF-8"?>
<svg id="Layer_1" data-name="Layer 1" xmlns="http://www.w3.org/2000/svg" viewBox="0 0 576 576">
  <defs>
    <style>
      .cls-1 {
        stroke-width: 1.37px;
      }

      .cls-1, .cls-2 {
        fill: none;
        stroke: #000;
        stroke-miterlimit: 10;
      }

      .cls-2 {
        stroke-width: 2.06px;
      }
    </style>
  </defs>
  <g>
    <line class="cls-2" x1="207.05" y1="334.97" x2="224.82" y2="314.88"/>
    <line class="cls-2" x1="234.29" y1="356.19" x2="249.35" y2="331.07"/>
    <line class="cls-2" x1="267.12" y1="368.88" x2="274.46" y2="341.84"/>
    <line class="cls-2" x1="300.35" y1="374" x2="301.89" y2="345.8"/>
    <line class="cls-2" x1="335.86" y1="368.88" x2="327.75" y2="341.84"/>
    <line class="cls-2" x1="368.34" y1="356.96" x2="354.82" y2="331.85"/>
    <line class="cls-2" x1="396.55" y1="336.87" x2="377.62" y2="316.78"/>
    <path d="M389.98,305.96c-94.27,89.63-175.01,0-175.01,0,0,0,42.64,36.08,87.51,35.64,46.81-.46,87.51-35.64,87.51-35.64Z"/>
  </g>
  <g>
    <line class="cls-1" x1="363.1" y1="165" x2="351.3" y2="178.33"/>
    <line class="cls-1" x1="345.03" y1="150.91" x2="335.02" y2="167.57"/>
    <line class="cls-1" x1="323.24" y1="142.47" x2="318.36" y2="160.42"/>
    <line class="cls-1" x1="301.19" y1="139.06" x2="300.15" y2="157.78"/>
    <line class="cls-1" x1="277.61" y1="142.45" x2="282.99" y2="160.4"/>
    <line class="cls-1" x1="256.05" y1="150.35" x2="265.01" y2="167.02"/>
    <line class="cls-1" x1="237.32" y1="163.67" x2="249.88" y2="177.02"/>
    <path d="M241.67,184.19c62.6-59.46,116.17,.06,116.17,.06,0,0-32.74-22.5-58.08-22.5-30.23,0-58.08,22.44-58.08,22.44Z"/>
  </g>
  <path d="M244.41,465.04c-.9-1.91-2.33-3.29-4.26-4.15,.03-.07,.06-.13,.09-.2,.5,.19,1.01,.37,1.5,.59,.98,.44,1.95,.9,2.9-.15,.06,.04,.13,.08,.19,.12-.06,1.25-.12,2.5-.18,3.75l-.24,.06Z"/>
  <path d="M238.51,460.32h-2.23s0-.09,0-.13h2.23s0,.09,0,.13Z"/>
  <g>
    <path d="M124.44,451.6l1.9-.2c1.75-.15,2.3-.5,2.3-.8v-28.78c0-.35-.2-.5-2.8-.7l-1.35-.15-.15-.3h13.84l-.15,.3-3,.2c-1.75,.15-2.4,.5-2.4,.8v29.23l5.9,.25c5.95-.05,7.55-3.5,9.69-8.59l.3-.65h.3l-1.95,9.69h-22.59l.15-.3Z"/>
    <path d="M164.37,438.21l-2.4,6.75c-1.9,5.45-1.9,6.15,2.65,6.55l1.05,.1,.15,.3h-10.84l.15-.3,.8-.1c3.1-.4,3.5-1,6.85-10.14l6.2-17.24-.5-1.4c1.25-.45,2-1.4,2.55-2.6h.45l9.1,26.54c1.35,3.95,1.8,4.7,4.15,4.85l1.4,.1,.15,.3h-13.09l.15-.3,1.6-.1c2-.1,2.8-1.05,2.05-3.4l-3.3-9.89h-9.29Zm9.1-.5s-4.25-12.79-4.25-12.79h-.05l-4.6,12.79h8.9Z"/>
    <path d="M193.25,450.85l-.5-7.1h.3l1.05,2.45c1.75,4.15,4.55,5.9,8.55,5.9,4.5,0,7.55-3.05,7.55-7.3s-2.85-6.25-7.8-7.85c-4.4-1.45-8.25-3.65-8.25-8.5,0-4.5,3.6-8.5,9.4-8.5,2.45,0,4.5,.55,6.15,1.15l2-.6,.45,7.65h-.3l-3.3-6c-1.3-1-2.8-1.75-5.05-1.75-3.7,0-6.35,2.5-6.35,5.9,0,3.85,3.15,5.45,7.25,6.9,5.05,1.75,9.15,4.15,9.15,9.59,0,5.05-4.55,9.79-10.94,9.79-2.9,0-6.65-.8-9.34-1.75Z"/>
    <path d="M221.44,451.6l1.8-.2c1.75-.15,2.4-.5,2.4-.8v-28.78c0-.35-.3-.5-2.9-.7l-1.25-.15-.15-.3h12.84l-.15,.3-2,.2c-1.75,.15-2.4,.5-2.4,.8v13.79h16.84v-13.94c0-.35-.3-.5-2.9-.7l-1.45-.15-.15-.3h12.84l-.15,.3-1.8,.2c-1.75,.15-2.4,.5-2.4,.8v28.78c0,.35,.3,.5,2.9,.7l1.25,.15,.15,.3h-12.84l.15-.3,2-.2c1.75-.15,2.4-.5,2.4-.8v-14.34h-16.84v14.49c0,.35,.3,.5,2.9,.7l1.45,.15,.15,.3h-12.84l.15-.3Z"/>
    <path d="M262.66,451.6l2-.2c1.75-.15,2.4-.5,2.4-.8v-28.78c0-.35-.3-.5-2.9-.7l-1.45-.15-.15-.3h13.04l-.15,.3-2,.2c-1.75,.15-2.4,.5-2.4,.8v28.78c0,.35,.3,.5,2.9,.7l1.45,.15,.15,.3h-13.04l.15-.3Z"/>
    <path d="M288.55,423.92h-.05l.05,25.94c0,.7,1.1,1.4,4.15,1.65l.95,.1,.15,.3h-10.49l.15-.3,1-.1c2.15-.2,3.55-.8,3.55-1.75l.1-26.29c-.75-.8-2-2.05-4.65-2.45l-.65-.1-.15-.3h8.4l19.64,25.04h.05l-.05-22.99c0-.7-1.1-1.3-4.15-1.6l-.95-.1-.15-.3h10.49l-.15,.3-1,.1c-2.15,.2-3.55,.75-3.55,1.7l-.1,29.38h-.35l-22.24-28.23Z"/>
    <path d="M322.63,436.56c0-9.59,7.1-16.69,17.64-16.69,3.45,0,6.65,1.1,8.45,2.1l2.55-1.2,.2,9.09h-.3l-3.8-7.5c-1.3-1.05-3.9-1.95-7.25-1.95-8.25,0-13.09,7.05-13.09,15.74,0,9.54,5.85,15.89,13.24,15.89,2.6,0,5.4-.7,6.75-1.75v-10.84c0-.35-.45-.55-3.05-.7l-1.95-.15-.15-.3h13.34l-.15,.3-1.8,.2c-1.75,.15-2.4,.5-2.4,.8v10.04l2.8-.3,.05,.2c-3.75,1.4-9.79,3.05-13.94,3.05-9.95,0-17.14-6.35-17.14-16.04Z"/>
    <path d="M375.91,436.36c0-8.6,7.75-16.44,16.54-16.44,9.44,0,16.49,6.7,16.49,16.39,0,8.65-7.75,16.29-16.59,16.29-9.44,0-16.44-6.65-16.44-16.24Zm28.63-.1c0-9.29-5.15-15.84-12.24-15.84s-11.99,6.2-11.99,15.99c0,9.25,5.05,15.64,12.24,15.64s11.99-6.1,11.99-15.79Z"/>
    <path d="M420.58,441.16v-19.34c0-.35-.3-.55-2.9-.75l-1.95-.15-.15-.3h14.04l-.15,.3-2.5,.2c-1.75,.15-2.4,.55-2.4,.85v18.54c0,7.25,3.05,10.44,9.74,10.44,6,0,9.35-3.7,9.35-11.49l-.05-16.79c0-.7-1.45-1.35-4.5-1.65l-.95-.1-.15-.3h10.74l-.15,.3-1,.1c-2.15,.2-3.45,.8-3.45,1.75l-.05,16.84c-.05,8.25-3.45,12.99-11.34,12.99-8.59,0-12.19-3.25-12.19-11.44Z"/>
    <path d="M462.46,451.6l2.5-.2c1.75-.15,2.4-.5,2.4-.8v-29.48h-3.2c-3.85,.3-6.45,3.65-8.34,7.2l-.35,.65h-.35l2.05-8.29h24.84l1.5,8.29h-.3l-.3-.65c-2.2-4.9-4.5-7-8.4-7.2h-3.15v29.63c0,.35,.3,.5,2.9,.7l1.95,.15,.15,.3h-14.04l.15-.3Z"/>
  </g>
  <path d="M179.53,248.31l7.96-.84c7.33-.63,9.64-2.1,9.64-3.35V123.41c0-1.47-.84-2.1-11.74-2.93l-5.66-.63-.63-1.26h58.05l-.63,1.26-12.57,.84c-7.33,.63-10.06,2.1-10.06,3.35v122.59l50.33,1.05c24.94-.21,31.64-14.67,40.66-36.04l1.26-2.72h1.26l-8.17,40.66h-120.32l.63-1.26Z"/>
  <path d="M230.75,251.09c0-36.04,32.48-68.95,69.37-68.95,39.61,0,69.16,28.08,69.16,68.74,0,36.25-32.48,68.32-69.58,68.32-39.61,0-68.95-27.87-68.95-68.11Zm120.08-.42c0-38.98-21.58-66.43-51.34-66.43s-50.3,25.99-50.3,67.06c0,38.77,21.17,65.59,51.34,65.59s50.3-25.57,50.3-66.22Z"/>
</svg>